<svg xmlns="http://www.w3.org/2000/svg" viewBox="0 0 512 512">
  <defs>
    <!-- Fondo degradado violeta profundo -->
    <linearGradient id="bg" x1="0" y1="0" x2="1" y2="1">
      <stop offset="0%" stop-color="#4c1d95"/>
      <stop offset="50%" stop-color="#6d28d9"/>
      <stop offset="100%" stop-color="#312e81"/>
    </linearGradient>

    <!-- Brillo interior del fondo -->
    <radialGradient id="bgGlow" cx="40%" cy="30%" r="60%">
      <stop offset="0%" stop-color="#8b5cf6" stop-opacity="0.5"/>
      <stop offset="100%" stop-color="#312e81" stop-opacity="0"/>
    </radialGradient>

    <!-- Estrella dorada — base -->
    <linearGradient id="starBase" x1="0" y1="0" x2="0" y2="1">
      <stop offset="0%" stop-color="#fef08a"/>
      <stop offset="35%" stop-color="#facc15"/>
      <stop offset="70%" stop-color="#d97706"/>
      <stop offset="100%" stop-color="#92400e"/>
    </linearGradient>

    <!-- Estrella dorada — brillo superior izquierdo -->
    <radialGradient id="starShine" cx="30%" cy="25%" r="55%">
      <stop offset="0%" stop-color="#fffde7" stop-opacity="0.85"/>
      <stop offset="60%" stop-color="#fef08a" stop-opacity="0.2"/>
      <stop offset="100%" stop-color="#facc15" stop-opacity="0"/>
    </radialGradient>

    <!-- Ticket — gradiente crema -->
    <linearGradient id="ticketGrad" x1="0" y1="0" x2="0" y2="1">
      <stop offset="0%" stop-color="#fffbeb"/>
      <stop offset="100%" stop-color="#fde68a"/>
    </linearGradient>

    <!-- Borde del ticket -->
    <linearGradient id="ticketBorder" x1="0" y1="0" x2="0" y2="1">
      <stop offset="0%" stop-color="#fbbf24"/>
      <stop offset="100%" stop-color="#d97706"/>
    </linearGradient>

    <!-- Sombra suave estrella -->
    <filter id="starDrop" x="-40%" y="-40%" width="180%" height="180%">
      <feDropShadow dx="0" dy="6" stdDeviation="14" flood-color="#7c2d12" flood-opacity="0.55"/>
    </filter>

    <!-- Resplandor dorado estrella -->
    <filter id="starGlow" x="-60%" y="-60%" width="220%" height="220%">
      <feGaussianBlur stdDeviation="18" result="blur"/>
      <feColorMatrix in="blur" type="matrix"
        values="1 0.8 0 0 0  0.8 0.6 0 0 0  0 0 0 0 0  0 0 0 0.7 0"
        result="goldBlur"/>
      <feMerge>
        <feMergeNode in="goldBlur"/>
        <feMergeNode in="SourceGraphic"/>
      </feMerge>
    </filter>

    <!-- Sombra ticket -->
    <filter id="ticketShadow" x="-20%" y="-20%" width="140%" height="140%">
      <feDropShadow dx="3" dy="8" stdDeviation="12" flood-color="#000" flood-opacity="0.35"/>
    </filter>

    <!-- Brillo borde fondo -->
    <linearGradient id="bgEdge" x1="0" y1="0" x2="1" y2="1">
      <stop offset="0%" stop-color="white" stop-opacity="0.15"/>
      <stop offset="100%" stop-color="white" stop-opacity="0"/>
    </linearGradient>
  </defs>

  <!-- Fondo principal -->
  <rect width="512" height="512" rx="108" fill="url(#bg)"/>
  <!-- Brillo radial interior -->
  <rect width="512" height="512" rx="108" fill="url(#bgGlow)"/>
  <!-- Borde luminoso superior izquierdo -->
  <rect width="512" height="512" rx="108" fill="none"
    stroke="url(#bgEdge)" stroke-width="3"/>

  <!-- ===== TICKET FONDO (inclinado) ===== -->
  <g transform="translate(256,340) rotate(-10)" filter="url(#ticketShadow)">
    <!-- Cuerpo del ticket -->
    <rect x="-175" y="-72" width="350" height="144" rx="20"
      fill="url(#ticketGrad)" stroke="url(#ticketBorder)" stroke-width="2.5"/>

    <!-- Muesca izquierda -->
    <circle cx="-175" cy="0" r="20" fill="#6d28d9"/>
    <!-- Muesca derecha -->
    <circle cx="175" cy="0" r="20" fill="#6d28d9"/>

    <!-- Línea perforada -->
    <line x1="80" y1="-72" x2="80" y2="72"
      stroke="#d97706" stroke-width="2" stroke-dasharray="10,7" opacity="0.7"/>

    <!-- Sección stub: "RIFA" -->
    <text x="128" y="8" text-anchor="middle"
      font-size="26" font-family="Arial Black, sans-serif" font-weight="900"
      fill="#92400e" letter-spacing="3" opacity="0.85">RIFA</text>
    <text x="128" y="36" text-anchor="middle"
      font-size="14" font-family="Arial, sans-serif"
      fill="#b45309" opacity="0.6" letter-spacing="1">TICKET</text>

    <!-- Número principal -->
    <text x="-40" y="14" text-anchor="middle"
      font-size="42" font-family="Arial Black, sans-serif" font-weight="900"
      fill="#7c2d12" opacity="0.9">#001</text>

    <!-- Puntitos decorativos izquierda -->
    <circle cx="-145" cy="38" r="5" fill="#f59e0b" opacity="0.55"/>
    <circle cx="-125" cy="38" r="5" fill="#f59e0b" opacity="0.55"/>
    <circle cx="-105" cy="38" r="5" fill="#f59e0b" opacity="0.55"/>

    <!-- Brillo superior ticket -->
    <rect x="-175" y="-72" width="350" height="60" rx="20"
      fill="white" opacity="0.18"/>
  </g>

  <!-- ===== ESTRELLA PRINCIPAL 3D ===== -->
  <!-- Sombra base (desplazada) -->
  <polygon
    transform="translate(260, 214)"
    points="0,-118 27,-40 113,-40 46,15 72,96 0,50 -72,96 -46,15 -113,-40 -27,-40"
    fill="#451a03" opacity="0.45"/>

  <!-- Estrella principal con resplandor -->
  <g filter="url(#starGlow)">
    <polygon
      transform="translate(256, 210)"
      points="0,-118 27,-40 113,-40 46,15 72,96 0,50 -72,96 -46,15 -113,-40 -27,-40"
      fill="url(#starBase)"
      filter="url(#starDrop)"/>
  </g>

  <!-- Brillo encima de la estrella (efecto 3D) -->
  <polygon
    transform="translate(256, 210)"
    points="0,-118 27,-40 113,-40 46,15 72,96 0,50 -72,96 -46,15 -113,-40 -27,-40"
    fill="url(#starShine)"/>

  <!-- Punto de luz especular (highlight) -->
  <ellipse cx="230" cy="138" rx="28" ry="18"
    fill="white" opacity="0.38" transform="rotate(-20, 230, 138)"/>

  <!-- ===== DESTELLOS / SPARKLES ===== -->
  <!-- Sparkle grande arriba derecha -->
  <g transform="translate(400, 88)">
    <polygon points="0,-16 3.5,-3.5 16,0 3.5,3.5 0,16 -3.5,3.5 -16,0 -3.5,-3.5"
      fill="#fef08a" opacity="0.95"/>
  </g>
  <!-- Sparkle mediano arriba izquierda -->
  <g transform="translate(122, 105)">
    <polygon points="0,-11 2.5,-2.5 11,0 2.5,2.5 0,11 -2.5,2.5 -11,0 -2.5,-2.5"
      fill="#fde68a" opacity="0.85"/>
  </g>
  <!-- Sparkle pequeño derecha -->
  <g transform="translate(428, 240)">
    <polygon points="0,-9 2,-2 9,0 2,2 0,9 -2,2 -9,0 -2,-2"
      fill="white" opacity="0.75"/>
  </g>
  <!-- Sparkle pequeño izquierda -->
  <g transform="translate(88, 215)">
    <polygon points="0,-7 1.5,-1.5 7,0 1.5,1.5 0,7 -1.5,1.5 -7,0 -1.5,-1.5"
      fill="white" opacity="0.65"/>
  </g>

  <!-- ===== CONFETTI ===== -->
  <circle cx="108" cy="148" r="11" fill="#f472b6" opacity="0.88"/>
  <circle cx="405" cy="155" r="9" fill="#34d399" opacity="0.85"/>
  <circle cx="435" cy="390" r="8" fill="#60a5fa" opacity="0.82"/>
  <circle cx="78" cy="400" r="10" fill="#fb923c" opacity="0.85"/>
  <rect x="388" y="368" width="16" height="16" rx="4"
    fill="#c4b5fd" opacity="0.85" transform="rotate(35, 396, 376)"/>
  <rect x="94" y="92" width="13" height="13" rx="3"
    fill="#fbbf24" opacity="0.9" transform="rotate(45, 100, 98)"/>
  <rect x="418" y="112" width="10" height="10" rx="2"
    fill="#f9a8d4" opacity="0.8" transform="rotate(20, 423, 117)"/>
</svg>
